<svg width="24" height="24" viewBox="0 0 24 24" fill="none" xmlns="http://www.w3.org/2000/svg">
<path d="M2.72258 2.00052C2.6021 2.00489 2.48445 2.03824 2.3796 2.09774C2.27474 2.15724 2.18578 2.24114 2.12024 2.34233C2.0547 2.44351 2.01451 2.55901 2.00309 2.67902C1.99166 2.79904 2.00934 2.92004 2.05461 3.03177L5.69035 11.9995L2.05461 20.9673C1.99727 21.1085 1.98432 21.2639 2.01748 21.4127C2.05064 21.5614 2.12833 21.6966 2.24022 21.8001C2.35211 21.9036 2.49287 21.9706 2.64377 21.9921C2.79467 22.0136 2.94853 21.9886 3.08488 21.9204L21.5849 12.6704C21.7095 12.6081 21.8143 12.5124 21.8875 12.3939C21.9607 12.2754 21.9995 12.1388 21.9995 11.9995C21.9995 11.8602 21.9607 11.7237 21.8875 11.6052C21.8143 11.4867 21.7095 11.3909 21.5849 11.3286L3.08488 2.07865C2.97255 2.02271 2.84798 1.99585 2.72258 2.00052ZM4.19133 4.30911L19.5732 11.9995L4.19133 19.69L7.00578 12.7495H13.7499C13.8493 12.7509 13.948 12.7326 14.0402 12.6955C14.1324 12.6585 14.2164 12.6034 14.2871 12.5337C14.3579 12.4639 14.4141 12.3807 14.4525 12.289C14.4908 12.1973 14.5106 12.0989 14.5106 11.9995C14.5106 11.9002 14.4908 11.8017 14.4525 11.7101C14.4141 11.6184 14.3579 11.5352 14.2871 11.4654C14.2164 11.3956 14.1324 11.3406 14.0402 11.3036C13.948 11.2665 13.8493 11.2481 13.7499 11.2495H7.00578L4.19133 4.30911Z" fill="black"/>
</svg>
