<svg width="24" height="25" viewBox="0 0 24 25" fill="none" xmlns="http://www.w3.org/2000/svg">
<g clip-path="url(#clip0_0_125)">
<path d="M12.015 13.9016C11.1831 13.9016 10.476 13.6104 9.8937 13.0281C9.31138 12.4458 9.02022 11.7387 9.02022 10.9068V4.91718C9.02022 4.08529 9.31138 3.37819 9.8937 2.79587C10.476 2.21355 11.1831 1.92239 12.015 1.92239C12.8469 1.92239 13.554 2.21355 14.1363 2.79587C14.7186 3.37819 15.0098 4.08529 15.0098 4.91718V10.9068C15.0098 11.7387 14.7186 12.4458 14.1363 13.0281C13.554 13.6104 12.8469 13.9016 12.015 13.9016ZM11.0167 20.8894V17.8197C9.28642 17.5868 7.85557 16.8132 6.72421 15.4988C5.59284 14.1844 5.02716 12.6537 5.02716 10.9068H7.02369C7.02369 12.2877 7.51034 13.4648 8.48365 14.4381C9.45696 15.4114 10.6341 15.8981 12.015 15.8981C13.3959 15.8981 14.5731 15.4114 15.5464 14.4381C16.5197 13.4648 17.0063 12.2877 17.0063 10.9068H19.0029C19.0029 12.6537 18.4372 14.1844 17.3058 15.4988C16.1744 16.8132 14.7436 17.5868 13.0133 17.8197V20.8894H11.0167ZM12.015 11.905C12.2978 11.905 12.5349 11.8094 12.7263 11.618C12.9176 11.4267 13.0133 11.1896 13.0133 10.9068V4.91718C13.0133 4.63434 12.9176 4.39725 12.7263 4.20592C12.5349 4.01459 12.2978 3.91892 12.015 3.91892C11.7322 3.91892 11.4951 4.01459 11.3037 4.20592C11.1124 4.39725 11.0167 4.63434 11.0167 4.91718V10.9068C11.0167 11.1896 11.1124 11.4267 11.3037 11.618C11.4951 11.8094 11.7322 11.905 12.015 11.905Z" fill="#808080"/>
</g>
<defs>
<clipPath id="clip0_0_125">
<rect width="23.99" height="23.99" fill="white" transform="translate(0.0150146 0.0300293)"/>
</clipPath>
</defs>
</svg>
